<svg xmlns="http://www.w3.org/2000/svg" width="97" height="19" viewBox="0 0 97 19" fill="none">
    <path fill-rule="evenodd" clip-rule="evenodd"
        d="M47.231 3.80713L44.7768 3.80768L44.779 9.95601L46.2275 9.95547L46.2264 7.13805H47.1279L47.1273 6.22753H46.2264L46.2258 4.83359L47.2315 4.83304L47.231 3.80713ZM42.8299 9.11218C42.8018 9.19585 42.7406 9.24178 42.6435 9.24178C42.547 9.24178 42.4864 9.20077 42.4621 9.12913C42.4318 9.05585 42.4224 8.83656 42.4224 8.52047L42.4213 5.24479C42.4208 4.96261 42.4417 4.7116 42.4814 4.65363C42.5206 4.59785 42.5763 4.57106 42.6507 4.57106C42.7389 4.57106 42.8001 4.6077 42.8282 4.67551C42.8558 4.74551 42.8668 4.99159 42.8668 5.24424L42.8679 8.50844C42.8679 8.82562 42.8569 9.02796 42.8299 9.11218ZM44.2505 4.80953C44.2262 4.58641 44.1871 4.48524 44.0415 4.29712C43.9004 4.10627 43.7151 3.98322 43.483 3.88862C43.2459 3.79401 42.9338 3.74862 42.6394 3.74862C42.3317 3.74862 42.0108 3.79456 41.7765 3.89737C41.5443 3.99744 41.3569 4.11885 41.2207 4.30587C41.0839 4.4918 41.0508 4.59899 41.0266 4.82484C41.0007 5.05069 40.9869 5.60029 40.9869 6.14332L40.9874 7.71116C40.988 8.26404 41.0023 8.70316 41.0304 8.923C41.0569 9.14503 41.1407 9.3501 41.2868 9.53986C41.4258 9.72798 41.6155 9.82258 41.8487 9.91883C42.0863 10.0118 42.351 10.0583 42.6416 10.0583C42.9525 10.0583 43.2222 10.008 43.4582 9.90625C43.6892 9.80727 43.8761 9.71376 44.0117 9.52236C44.1474 9.34025 44.2284 9.13135 44.2516 8.90714C44.2825 8.68184 44.2957 8.25037 44.2957 7.71007L44.2946 5.81411C44.2946 5.26014 44.2814 5.02937 44.2505 4.80953ZM39.7247 14.5942L39.7197 0.4065L34.5622 0.40814L34.5682 18.1444L42.8687 18.1417L42.867 14.5931L39.7247 14.5942ZM54.7242 14.702C54.5538 14.9683 54.0918 15.1029 53.3425 15.1034L53.3381 3.43508C53.9082 3.43508 54.2941 3.48648 54.4971 3.59257C54.7077 3.69921 54.8373 3.86545 54.8935 4.09076C54.953 4.31607 54.9823 4.83394 54.9823 5.63837L54.985 12.5266C54.9856 13.7111 54.8968 14.4384 54.7242 14.702ZM60.0123 3.27866C59.8971 2.70063 59.6082 2.18003 59.1483 1.71465C58.6863 1.24872 58.0136 0.911313 57.1281 0.704053C56.2431 0.503903 54.5476 0.40164 52.0322 0.402734L48.1439 0.403281L48.15 18.1396L54.7064 18.1374C55.9487 18.1374 56.8794 18.0767 57.4958 17.958C58.115 17.835 58.6339 17.625 59.0563 17.3204C59.4736 17.019 59.767 16.5963 59.9374 16.0588C60.1055 15.5239 60.1882 14.4597 60.1877 12.8673L60.1855 6.65388C60.1849 4.97666 60.1298 3.8474 60.0123 3.27866ZM17.5831 11.8819C17.7209 10.3092 18.0479 7.82534 18.5733 4.4288C18.8375 7.3873 19.1016 9.8684 19.3607 11.8814L17.5831 11.8819ZM14.6371 0.474821L12.0114 18.2133L17.3488 18.2111L17.6587 15.0224L19.5041 15.0218L19.7787 18.2106L25.056 18.2084L22.0973 0.472087L14.6371 0.474821ZM96.0839 0.366392L91.2958 0.368033C90.6176 3.14444 90.1362 5.47843 89.8462 7.37712C89.7492 6.17349 89.3285 3.8384 88.5791 0.369127L83.7948 0.383345L83.797 0.393189L73.639 0.39647L73.6401 3.94723L76.7168 3.94613L76.7212 18.1317L81.9201 18.1306L81.9152 3.94449L84.9445 3.9434L87.4615 11.7307L87.4593 18.1546L92.2894 18.1535L92.2872 11.7159L96.0839 0.366392ZM12.3454 11.0597L7.12714 11.0745L7.13596 13.321C7.13651 14.2982 7.07972 14.9216 6.95897 15.1879C6.84152 15.4537 6.59009 15.5871 6.20192 15.5871C5.79556 15.5893 5.532 15.4581 5.41676 15.1907C5.30207 14.9282 5.24087 14.3611 5.23977 13.4949L5.21716 5.19955C5.21055 4.29395 5.26899 3.70717 5.38202 3.43374C5.49837 3.16086 5.77185 3.0236 6.19862 3.0236C6.58127 3.02086 6.82829 3.13516 6.93636 3.35663C7.0516 3.58194 7.1106 4.14684 7.1106 5.04752L7.11997 8.15259L12.3377 8.13509L12.336 6.43818C12.3266 4.77026 12.1684 3.54585 11.8508 2.75618C11.5343 1.96761 10.8754 1.30919 9.87521 0.784209C8.8706 0.259772 7.60463 -0.00217385 6.06849 1.35867e-05C4.93541 0.00438846 3.93355 0.176649 3.06458 0.522811C2.19451 0.868426 1.51355 1.33708 1.02062 1.93644C0.534857 2.53252 0.240972 3.15266 0.141724 3.79631C0.04413 4.44105 -0.00108307 5.40681 1.96819e-05 6.69302L0.0160097 11.9101C0.0209721 13.6573 0.18804 14.9686 0.508942 15.8403C0.775809 16.5523 1.26654 17.1386 1.98167 17.5968C2.05611 17.6439 2.43766 17.8566 2.48839 17.8812C2.60859 17.9408 3.23496 18.188 3.34303 18.2214C3.58233 18.2963 3.8332 18.3608 4.09621 18.4144C4.1905 18.433 4.78598 18.5254 4.78598 18.5254C4.78598 18.5254 5.74428 18.6096 6.2714 18.6085C7.74027 18.6047 8.97922 18.3099 9.97832 17.7254C10.9829 17.1419 11.6308 16.4643 11.9186 15.6888C12.2119 14.915 12.3526 13.6026 12.3503 11.7542L12.3454 11.0597ZM30.6114 14.5964L30.607 0.408151L25.4422 0.409792L25.4483 18.1466L33.7504 18.1433L33.7493 14.5953L30.6114 14.5964ZM67.8549 0.397052L67.8593 13.4823C67.8598 14.3677 67.8118 14.9287 67.717 15.1666C67.6227 15.404 67.4104 15.5226 67.0796 15.5232C66.7907 15.5232 66.5988 15.4154 66.5029 15.1994C66.4086 14.984 66.3612 14.4885 66.3606 13.7131L66.3562 0.397599L61.1595 0.399239L61.1633 10.9044C61.1639 12.9075 61.2047 14.2216 61.2874 14.8467C61.3701 15.4712 61.6375 16.0657 62.0902 16.6278C62.544 17.1911 63.2277 17.6483 64.1408 17.9983C65.0555 18.3488 66.1086 18.5238 67.3035 18.5232C68.3814 18.5232 69.3177 18.3745 70.1122 18.0786C70.9067 17.7828 71.5469 17.3469 72.0326 16.7727C72.5179 16.1985 72.8101 15.6397 72.9088 15.095C73.0069 14.5509 73.056 13.6053 73.056 12.2601L73.0516 0.395411L67.8549 0.397052ZM95.2829 17.8647C94.5027 17.8652 93.8725 17.2139 93.872 16.3876C93.872 15.575 94.5022 14.9171 95.2736 14.9171H95.2818C96.062 14.9166 96.6862 15.5739 96.6868 16.3947C96.6868 17.2128 96.0626 17.8729 95.2829 17.8647ZM95.2773 14.6472H95.2691C94.3113 14.6478 93.5317 15.4227 93.5322 16.389C93.5322 17.3722 94.3124 18.1362 95.2702 18.1356C96.2367 18.1356 97.0015 17.3711 97.001 16.3879C97.001 15.4216 96.2356 14.6467 95.2773 14.6472ZM95.1695 16.3263L94.944 16.3268V15.6684C94.9986 15.6608 95.0697 15.6537 95.169 15.6537C95.5208 15.6531 95.6448 15.8226 95.6448 15.9927C95.6448 16.2328 95.427 16.3263 95.1695 16.3263ZM95.5928 16.449V16.4348C95.8039 16.3719 95.9754 16.2171 95.9754 15.9629C95.9754 15.7775 95.912 15.6451 95.7957 15.5593C95.6804 15.4751 95.4836 15.4149 95.1886 15.4149C94.9532 15.4155 94.7993 15.4379 94.6345 15.4619L94.6356 17.4011H94.9471L94.9466 16.566H95.1655C95.413 16.566 95.5382 16.6579 95.5862 16.9051C95.6259 17.161 95.6722 17.3398 95.719 17.4011H96.0471C96.0157 17.3393 95.9688 17.2228 95.9208 16.9215C95.8828 16.6355 95.7654 16.4813 95.5928 16.449Z"
        fill="white" />
</svg>